<svg xmlns="http://www.w3.org/2000/svg" viewBox="0 0 350.29 315.81"><defs><style>.cls-1,.cls-2,.cls-3,.cls-4{fill:none;stroke:#ef3b39;stroke-miterlimit:10;}.cls-1{stroke-linecap:round;}.cls-1,.cls-2{stroke-width:31px;}.cls-3{stroke-width:18px;}.cls-4{stroke-width:6px;}</style></defs><g id="Layer_2" data-name="Layer 2"><g id="Bag"><line class="cls-1" x1="32.35" y1="300.31" x2="318.61" y2="300.22"/><line class="cls-1" x1="15.5" y1="88.92" x2="334.79" y2="88.92"/><line class="cls-1" x1="15.5" y1="88.92" x2="15.5" y2="210.16"/><line class="cls-1" x1="334.79" y1="209.86" x2="334.79" y2="88.92"/><line class="cls-2" x1="32.35" y1="300.31" x2="32.35" y2="194.34"/><line class="cls-2" x1="318.61" y1="300.65" x2="318.61" y2="194.68"/><line class="cls-2" x1="46.04" y1="209.86" x2="130.93" y2="209.86"/><line class="cls-2" x1="225.64" y1="210.16" x2="306.65" y2="210.16"/><line class="cls-2" x1="127.93" y1="157.41" x2="228.08" y2="157.41"/><line class="cls-2" x1="127.39" y1="229.11" x2="228.18" y2="229.11"/><line class="cls-2" x1="143.38" y1="161.29" x2="143.38" y2="218.34"/><line class="cls-2" x1="212.59" y1="164.74" x2="212.59" y2="221.79"/><path class="cls-2" d="M122,80.67q-.19-20.82-.14-41.62"/><path class="cls-2" d="M228.32,80.67q.47-21.86.32-43.69"/><path class="cls-2" d="M138,15.65q34.77.09,69.52,0"/><line class="cls-3" x1="236.68" y1="44" x2="199.11" y2="6.43"/><line class="cls-4" x1="219.18" y1="38.6" x2="202.96" y2="23.96"/><line class="cls-4" x1="241.98" y1="35.19" x2="205.47" y2="2.34"/><line class="cls-4" x1="241.2" y1="39.39" x2="241.07" y2="33.06"/><line class="cls-3" x1="112.95" y1="45.54" x2="148.9" y2="6.79"/><line class="cls-4" x1="108.67" y1="40.94" x2="140.16" y2="1.88"/><line class="cls-3" x1="128.35" y1="41.07" x2="128.35" y2="29.67"/><line class="cls-4" x1="132.13" y1="39.79" x2="145.84" y2="22.78"/></g></g></svg>