<svg xmlns="http://www.w3.org/2000/svg" viewBox="0 0 384.16 384.56"><defs><style>.cls-1,.cls-2,.cls-4{fill:none;stroke:#ef3b39;stroke-miterlimit:10;}.cls-1,.cls-4{stroke-linecap:round;}.cls-1,.cls-2{stroke-width:31px;}.cls-3{fill:#ef3b39;}.cls-4{stroke-width:33px;}</style></defs><g id="Layer_2" data-name="Layer 2"><g id="Pen"><line class="cls-1" x1="297.36" y1="369.06" x2="368.66" y2="297.76"/><line class="cls-2" x1="253.38" y1="346.71" x2="346.74" y2="253.35"/><line class="cls-2" x1="271.78" y1="343.22" x2="294.98" y2="366.43"/><line class="cls-2" x1="345.36" y1="274.46" x2="368.57" y2="297.67"/><line class="cls-1" x1="337.3" y1="263.68" x2="316.9" y2="192.27"/><line class="cls-1" x1="272.1" y1="327.99" x2="199.25" y2="311.57"/><line class="cls-1" x1="155.75" y1="142.99" x2="314.24" y2="188.14"/><line class="cls-1" x1="155.75" y1="142.99" x2="199.25" y2="311.57"/><line class="cls-2" x1="178.94" y1="170.58" x2="232.74" y2="222.01"/><ellipse class="cls-2" cx="255.91" cy="246.35" rx="28.29" ry="26.9"/><line class="cls-2" x1="159.98" y1="157.79" x2="155.4" y2="141.74"/><path class="cls-3" d="M152.51,145.33l2.71-3.61a2.46,2.46,0,0,0,.25-1.93,2.58,2.58,0,0,0-.89-1.29,2.49,2.49,0,0,0-3.28.19,22.12,22.12,0,0,1-1.87,1.75c-.12.09-.6.55-.12.1a4.54,4.54,0,0,1-.5.36c-.36.26-.72.5-1.1.74l3.67,2.82c.1-.25.08-.21-.06.14l.14-.3a6.32,6.32,0,0,1,.33-.56c.08-.13.25-.49.38-.54l-.09.11.22-.25a19.77,19.77,0,0,1,1.93-1.84l-3.93-3-.15.29c-.15.28,0,0,.1-.11-.16.13-.29.33-.44.48-.37.38-.76.75-1.15,1.11-.79.73-1.59,1.43-2.4,2.14l3.92,3c.21-.33.42-.64.64-.95.38-.52-.24.26.09-.12.11-.13.22-.27.34-.4a15.3,15.3,0,0,1,1.63-1.59L149,139l-.37.57c-.17.22-.14.18.07-.1l-.21.26c-.29.33-.59.63-.9.93-.65.61-1.35,1.17-2,1.72L149,146a22.3,22.3,0,0,1,2.31-1.91l2.53-2c.82-.63,1.65-1.25,2.46-1.9a6.52,6.52,0,0,0,2-2.73,2.41,2.41,0,0,0,0-1.33,2.51,2.51,0,0,0-.89-1.3,2.57,2.57,0,0,0-2.78-.19l-5.38,2.53,3.42,3.42a4.19,4.19,0,0,1,.24-.42c.33-.52,0,0,0,0l.7-.77.73-.64.38-.3c.15-.12.08-.07-.19.14l.26-.2L151.4,135c-.16.22-.14.19.07-.08a2.75,2.75,0,0,1-.22.26,4.4,4.4,0,0,1-.35.39c-.3.33-.61.63-.93.92-.63.58-1.29,1.11-1.95,1.64l3.93,3c.19-.3.39-.59.6-.88l.21-.29-.17.23c.12-.17.26-.33.39-.49a21.11,21.11,0,0,1,1.51-1.63L151,134.54a27.5,27.5,0,0,1-3.05,3.15l3.92,3,.17-.28c0-.07.31-.47.08-.14s0,0,.07-.05l.29-.28-3.93-3q-.34.53-.72,1.05l-.33.44c.21-.27.23-.29.06-.08l-.11.15a12.1,12.1,0,0,0-1.62,2.28,17,17,0,0,1-1.15,2.09,6.43,6.43,0,0,0-1.19,2.38,2.7,2.7,0,0,0,.25,1.93,2.5,2.5,0,0,0,4.57-.6,1.16,1.16,0,0,1,.07-.31c-.16.33-.19.41-.1.24s.15-.28.24-.41c.21-.32.43-.62.63-.94a21.89,21.89,0,0,0,1.08-2,4.39,4.39,0,0,1,.27-.47c0-.07.09-.14.14-.21.16-.22.13-.18-.09.11,0-.1.26-.31.32-.39l.34-.42c.58-.75,1.14-1.5,1.66-2.29a2.5,2.5,0,0,0-3.93-3,7.3,7.3,0,0,0-1.38,1.75,2.5,2.5,0,0,0,3.92,3,25.23,25.23,0,0,0,3.05-3.15,2.71,2.71,0,0,0,.73-1.77,2.5,2.5,0,0,0-4.26-1.76,23.68,23.68,0,0,0-3.33,4.07,2.5,2.5,0,0,0,.64,3.22,2.56,2.56,0,0,0,3.29-.19,22.34,22.34,0,0,0,4.16-4.14,2.5,2.5,0,0,0-.4-3,2.92,2.92,0,0,0-1.1-.65,2.51,2.51,0,0,0-1.93.26,12.6,12.6,0,0,0-3.88,4,2.55,2.55,0,0,0,.39,3,2.62,2.62,0,0,0,3,.39L157.2,139l-3.67-2.83c.16-.36.18-.42.05-.18s-.11.17.12-.14c-.06,0-.36.38-.43.44-.28.26-.58.49-.88.72L150,138.8l-2.38,1.84a21.48,21.48,0,0,0-2.14,1.78,2.5,2.5,0,0,0,1.76,4.27A2.92,2.92,0,0,0,149,146a17.38,17.38,0,0,0,4.24-4.4,2.51,2.51,0,0,0-.64-3.22,2.55,2.55,0,0,0-3.29.19,17.54,17.54,0,0,0-3.47,4.07,2.5,2.5,0,0,0,3.92,3c.86-.75,1.72-1.49,2.55-2.27a10,10,0,0,0,2.28-2.65,2.51,2.51,0,0,0-3.93-3,13.68,13.68,0,0,0-4.13,5.45,2.51,2.51,0,0,0,3.67,2.82,23.58,23.58,0,0,0,4.6-3.72l-3.92-3-2.72,3.61a2.5,2.5,0,0,0,.9,3.42,2.5,2.5,0,0,0,1.93.25,2.92,2.92,0,0,0,1.49-1.15Z"/><path class="cls-3" d="M147,146.16l1.75-3.54a27.63,27.63,0,0,1,1.82-3.39L146,137.31c-.16.44.16-.28,0,0-.06.1-.11.22-.16.32-.15.27-.32.52-.48.77s.29-.31.05-.08-.2.23-.31.34a7.87,7.87,0,0,1-.68.6l4.18,2.43.3-.74c.24-.62-.23.47.06-.14a11.91,11.91,0,0,1,.65-1.22c.11-.19.3-.5.06-.14a4.86,4.86,0,0,1,.53-.58l.43-.4.3-.25c-.22.16-.26.19-.11.09.73-.54,1.47-1.06,2.24-1.54.4-.25.81-.49,1.23-.71.18-.1.37-.18.55-.27s.25-.11,0,0l.39-.14a2.5,2.5,0,0,0-1.33-4.82,22.34,22.34,0,0,0-6,3.52,10.28,10.28,0,0,0-2.52,2.7,19.26,19.26,0,0,0-1.51,3.3,2.5,2.5,0,0,0,1.15,2.82,2.62,2.62,0,0,0,3-.39,9.26,9.26,0,0,0,2.85-4.14,2.48,2.48,0,0,0-1.45-2.95,2.52,2.52,0,0,0-3.12,1,26.8,26.8,0,0,0-1.82,3.38l-1.74,3.55a2.5,2.5,0,1,0,4.31,2.52Z"/><path class="cls-3" d="M143.17,142.39l-.16,0,.66-.09c-.16,0-.33,0-.49,0a6.57,6.57,0,0,0-.89.12,5,5,0,0,0-.82.32,1.87,1.87,0,0,0-.7.64,1.83,1.83,0,0,0-.44.85,1.89,1.89,0,0,0-.05,1,1.86,1.86,0,0,0,.3.93l.39.5a2.52,2.52,0,0,0,1.1.65l.67.09a2.64,2.64,0,0,0,1.26-.34h0l-.6.25a1,1,0,0,1,.29-.07l-.67.09.41,0,.2,0a6.21,6.21,0,0,0,.85-.12,2.87,2.87,0,0,0,1.5-1.15,1.85,1.85,0,0,0,.29-.93,1.89,1.89,0,0,0,0-1l-.25-.6a2.56,2.56,0,0,0-.9-.89l-.6-.25a2.5,2.5,0,0,0-1.33,0Z"/><path class="cls-3" d="M145.84,143.28c-.08-.22-.13-.43-.19-.65.09.35,0,.12,0-.11,0-.38,0-.76,0-1.14s.07-.82.12-1.23c0,.37,0,.1,0-.11a4.88,4.88,0,0,1,.12-.55c0-.18.12-.35.16-.53s-.17.27.06-.11c.11-.18.21-.36.33-.54-.2.28-.08.12.08,0s.25-.24.38-.36c.33-.31-.17.09.07,0s.64-.43,1-.62c.66-.38,1.35-.71,2-1,.38-.19.78-.35,1.17-.55.24-.13-.32.09.12-.05a5.52,5.52,0,0,0,.54-.16c.17,0,.14,0-.07,0h.25l.74,0,.24,0c-.24,0-.27,0-.1,0l.53.1c.36.08.7.19,1,.3-.49-.16.08.05.18.11a6.22,6.22,0,0,1,.54.35,2.5,2.5,0,0,0,3.42-.89,2.59,2.59,0,0,0-.9-3.43,9.61,9.61,0,0,0-6.52-1.51,11.49,11.49,0,0,0-3.28,1.17c-.9.42-1.8.84-2.66,1.35A8.48,8.48,0,0,0,141.2,138a16.14,16.14,0,0,0-.5,3.32,8.15,8.15,0,0,0,.32,3.33,2.5,2.5,0,1,0,4.82-1.32Z"/><path class="cls-3" d="M145,142.84l0-.06.25.6a1.28,1.28,0,0,1-.09-.32l.09.66a1.79,1.79,0,0,1,0-.4l-.09.66a9.16,9.16,0,0,1,.43-1.53c.17-.52.37-1,.58-1.54l-.25.6.09-.21a2,2,0,0,0,.3-.93,1.89,1.89,0,0,0-.05-1,2.49,2.49,0,0,0-3.07-1.75l-.6.25a2.76,2.76,0,0,0-.9.9,26.84,26.84,0,0,0-1.05,2.75,7.92,7.92,0,0,0-.29,1.06,4.91,4.91,0,0,0-.12,1.14,3.74,3.74,0,0,0,.46,1.64,2.52,2.52,0,0,0,1.49,1.15,2.5,2.5,0,0,0,3.08-1.74,2.75,2.75,0,0,0-.25-1.93Z"/><path class="cls-3" d="M142.69,146.62c3.22,0,3.23-5,0-5s-3.22,5,0,5Z"/><path class="cls-3" d="M142.69,146.62c3.22,0,3.23-5,0-5s-3.22,5,0,5Z"/><path class="cls-3" d="M142.57,146.57c3.22,0,3.22-5,0-5s-3.22,5,0,5Z"/><path class="cls-3" d="M142.57,146c3.22,0,3.22-5,0-5s-3.22,5,0,5Z"/><path class="cls-3" d="M142.62,145.61c3.22,0,3.22-5,0-5s-3.22,5,0,5Z"/><path class="cls-3" d="M142.64,145.14c3.22,0,3.23-5,0-5s-3.22,5,0,5Z"/><path class="cls-3" d="M145.14,142.59v-.18a2.43,2.43,0,0,0-1.53-2.28,1.9,1.9,0,0,0-1-.22L142,140a2.52,2.52,0,0,0-1.1.65l-.39.5a2.54,2.54,0,0,0-.35,1.26v.18a1.88,1.88,0,0,0,.22,1,1.85,1.85,0,0,0,.52.81,1.83,1.83,0,0,0,.8.51,1.88,1.88,0,0,0,1,.22l.67-.09a2.5,2.5,0,0,0,1.1-.64l.39-.51a2.43,2.43,0,0,0,.34-1.26Z"/><path class="cls-3" d="M145.07,142.79a8.93,8.93,0,0,1,.56-2.22l-.26.59a5.28,5.28,0,0,1,.59-1,1.9,1.9,0,0,0,.3-.93,1.86,1.86,0,0,0,0-1,1.8,1.8,0,0,0-.45-.85,1.83,1.83,0,0,0-.7-.65,2.53,2.53,0,0,0-1.92-.25l-.6.25a2.43,2.43,0,0,0-.9.9,5,5,0,0,0-.45.74,9.6,9.6,0,0,0-.56,1.37,9.48,9.48,0,0,0-.38,1.74,1.86,1.86,0,0,0-.05,1,2.26,2.26,0,0,0,.94,1.63,1.85,1.85,0,0,0,.85.45,2.5,2.5,0,0,0,1.93-.25l.51-.39a2.6,2.6,0,0,0,.64-1.1Z"/><path class="cls-3" d="M142.57,145.46c3.22,0,3.22-5,0-5s-3.22,5,0,5Z"/><path class="cls-3" d="M142.62,146.82c3.22,0,3.22-5,0-5s-3.22,5,0,5Z"/><path class="cls-3" d="M142.74,147c3.22,0,3.23-5,0-5s-3.22,5,0,5Z"/><path class="cls-3" d="M142.64,147.12c3.22,0,3.23-5,0-5s-3.22,5,0,5Z"/><path class="cls-3" d="M142.64,147.12c3.22,0,3.23-5,0-5s-3.22,5,0,5Z"/><path class="cls-3" d="M146.6,145.92c3.22,0,3.22-5,0-5s-3.22,5,0,5Z"/><path class="cls-3" d="M142.89,147.91c3.22,0,3.22-5,0-5s-3.22,5,0,5Z"/><path class="cls-3" d="M142.83,147.93c3.21,0,3.22-5,0-5s-3.23,5,0,5Z"/><path class="cls-3" d="M143.24,142.15c3.21,0,3.22-5,0-5s-3.23,5,0,5Z"/><path class="cls-4" d="M264.59,16.5C242.53,17.37,167,23.14,101.53,83c-83.26,76.13-85,179.94-85,196.87"/><path class="cls-3" d="M180.33,172.51c3.21,0,3.22-5,0-5s-3.23,5,0,5Z"/><path class="cls-3" d="M179.53,169.34c3.22,0,3.23-5,0-5s-3.22,5,0,5Z"/><path class="cls-3" d="M181.12,168.16c3.21,0,3.22-5,0-5s-3.23,5,0,5Z"/></g></g></svg>